<svg width="43" height="63" viewBox="0 0 43 63" fill="none" xmlns="http://www.w3.org/2000/svg">
<path d="M2.12439 22.0906C3.20454 21.2592 5.64288 21.6942 6.72703 22.0155C7.90585 22.4886 10.0402 22.5184 10.96 22.4741C13.0218 22.6071 11.0795 19.5667 9.85059 18.0299C8.9718 17.1812 7.84111 15.1568 7.38561 14.2506C6.56683 13.2525 7.57122 11.8761 8.14629 11.2698C9.56939 10.8241 10.6218 11.1988 10.97 11.4419C11.8488 12.2906 13.9725 12.5641 14.9244 12.5947C15.696 12.9044 15.8066 10.758 15.7655 9.64617C15.4611 8.35838 15.5313 6.17312 15.6045 5.24146C15.9001 2.58242 18.053 3.66131 19.0926 4.53313C19.7356 4.79116 21.1288 7.21029 21.7451 8.3876C22.2724 9.12001 23.2579 8.36431 23.6847 7.89491C25.369 2.39545 28.8192 1.01676 30.3338 1.01485C32.8071 0.742522 33.7685 4.57356 33.9401 6.52312C34.0602 7.58813 32.9937 10.2251 32.4455 11.4105C31.9312 12.6921 33.0886 12.9085 33.7315 12.8566C35.5447 12.3689 37.3554 12.1717 38.0341 12.134C38.87 12.0975 39.6684 12.6348 39.9631 12.9081C40.5718 13.6236 40.4025 14.2935 40.2418 14.539C40.2204 15.2744 37.3129 17.8588 36.2984 18.6297C35.3726 19.2006 35.1769 19.9777 35.1948 20.2949C34.9591 21.3163 38.0222 22.5248 39.5082 22.9558C40.8585 23.4977 41.139 24.6022 41.1105 25.0868C41.1705 26.0533 40.364 26.792 39.9532 27.0405C39.7046 27.6599 34.9381 28.4277 32.5859 28.7342C31.3642 28.6159 31.1446 29.7162 31.1875 30.2811C31.1532 31.2345 34.9527 33.6623 36.8567 34.7571C38.0784 35.2473 38.2231 36.6488 38.1428 37.2882C38.31 38.4217 35.2263 39.5176 33.6635 39.9239C31.7003 39.9793 27.7017 40.8796 25.9479 41.3228C24.6662 41.3541 23.9922 42.1914 23.8154 42.6061C23.854 43.192 24.7675 43.9285 25.2193 44.2235C27.6156 45.0115 28.5469 45.9825 28.713 46.3695C29.2189 47.3413 27.5201 48.8772 26.6074 49.5236C26.196 50.5489 17.2022 51.6189 12.7568 52.0258C12.9494 48.011 22.9265 22.0576 27.891 9.58281L27.4891 9.42155C26.9533 9.95056 14.544 41.345 8.40625 56.9761C8.04623 57.8733 8.3385 59.057 8.52964 59.5367C8.71828 60.0588 8.49399 60.6591 8.35826 60.894C8.26397 61.1289 7.1509 60.9571 6.60614 60.8419C5.47019 60.386 7.45063 55.6626 8.58285 53.3579C9.19144 51.8413 9.32212 50.8955 9.32212 50.8955C9.26636 50.2283 7.67704 48.6647 6.88935 47.9662C5.20897 46.9447 2.45245 42.1764 1.28424 39.9199C0.555466 38.8834 1.39836 36.8449 1.9109 35.9553C2.32234 34.9299 4.42207 35.7436 5.42051 36.2786C6.21353 36.5968 7.47627 36.6075 8.00851 36.5731C8.4586 36.7537 8.35316 35.6367 8.24418 35.0556C7.69544 34.0666 5.01115 30.3998 3.73759 28.6901C2.79022 27.8883 1.83165 25.0422 1.47079 23.7194C0.892083 23.2392 1.75111 22.2198 2.25296 21.7702" stroke="white" stroke-width="2"/>
</svg>
