<svg width="356" height="1066" viewBox="0 0 356 1066" fill="none" xmlns="http://www.w3.org/2000/svg">
<path d="M124.382 19.5596H154.123C157.719 19.8476 160.54 20.8798 161.501 21.3598C163.231 22.2239 165.105 24.3602 165.826 25.3203C166.691 26.1844 166.907 28.3207 166.907 29.2809C168.925 27.8407 174.235 21.9599 176.638 19.1995C178.367 18.3354 190.572 18.8395 196.459 19.1995L197.54 20.6397L185.647 32.5213L197.9 47.6433L196.819 48.7234C196.242 48.7234 183.365 48.7234 176.998 48.7234L166.907 35.7617C166.907 37.4899 164.264 41.5225 162.943 43.3227C162.366 45.627 155.015 47.8833 151.411 48.7234C143.915 48.7234 129.547 48.7234 123.301 48.7234L124.022 19.5596M131.229 38.282L134.833 29.2809C140.023 28.9928 145.404 29.1608 147.447 29.2809C150.618 29.2809 151.17 31.4411 151.05 32.5213C151.05 34.8256 149.369 36.8418 148.528 37.5619C147.951 38.4261 143.963 38.4021 142.041 38.282H131.229Z" stroke="#98978D"/>
<path d="M159.338 5.54053C175.398 5.54053 189.912 8.87391 200.393 14.2388C210.901 19.6173 217.221 26.9574 217.221 34.9243C217.221 42.8913 210.901 50.2323 200.393 55.6108C189.912 60.9756 175.398 64.3081 159.338 64.3081C143.279 64.3081 128.765 60.9757 118.284 55.6108C107.776 50.2323 101.457 42.8912 101.457 34.9243C101.457 26.9575 107.776 19.6173 118.284 14.2388C128.765 8.87392 143.279 5.54058 159.338 5.54053Z" stroke="#98978D"/>
<path d="M159.699 0.5C177.445 0.500009 193.487 4.43565 205.074 10.7734C216.679 17.1213 223.707 25.8089 223.708 35.2842C223.708 44.7596 216.679 53.4479 205.074 59.7959C193.487 66.1337 177.445 70.0693 159.699 70.0693C141.953 70.0693 125.911 66.1337 114.324 59.7959C102.718 53.4479 95.6899 44.7597 95.6899 35.2842C95.6902 25.8089 102.718 17.1213 114.324 10.7734C125.911 4.43565 141.953 0.5 159.699 0.5Z" stroke="#98978D"/>
<path d="M214.246 1064.85C186.955 1068.25 186.007 1014.32 187.575 1008.87M155.448 1064.07C180.403 1067.43 181.271 1014.24 179.837 1008.86M180.165 1011.61C167.61 1023.59 149.193 1009.15 161.677 1000.78M161.677 1000.78C142.638 1000.03 144.705 978.984 160.307 981.948M180.163 1011.6C167.609 1023.59 149.191 1009.15 161.676 1000.78M160.307 981.947C152.227 967.622 175.395 959.614 179.541 972.416C189.413 958.668 213.162 969.613 202.019 981.946C220.617 978.456 223.626 1000.18 207.642 1000.78C217.651 1014.98 188.476 1022.98 187.416 1009.64" stroke="#98978D" stroke-width="2"/>
<path d="M154.529 140.74C80.8172 222.719 281.03 278.24 192.565 402.749" stroke="#312F1C" stroke-opacity="0.5" stroke-width="4" stroke-linecap="round"/>
<path d="M200.853 635.74C274.565 717.719 74.3523 773.24 162.817 897.749" stroke="#312F1C" stroke-opacity="0.5" stroke-width="4" stroke-linecap="round"/>
<path d="M185.756 565.134C216.738 565.849 242.469 542.667 243.227 513.357C243.984 484.047 219.482 459.707 188.499 458.992C157.516 458.277 131.785 481.458 131.028 510.769C130.27 540.079 154.773 564.419 185.756 565.134Z" stroke="#98978D" stroke-width="2"/>
<path opacity="0.7" d="M185.931 562.201C214.955 562.87 239.058 541.155 239.768 513.698C240.477 486.241 217.524 463.44 188.501 462.771C159.477 462.101 135.374 483.817 134.664 511.274C133.955 538.73 156.908 561.531 185.931 562.201Z" stroke="#98978D" stroke-width="1.5"/>
<path d="M188.574 499.194L178.788 501.634L178.539 500.648C178.824 500.557 179.265 500.408 179.861 500.2C180.464 499.981 180.873 499.81 181.089 499.687C181.366 499.52 181.556 499.315 181.659 499.073C181.77 498.819 181.773 498.483 181.667 498.067L179.202 488.317L175.586 489.218L175.291 488.052L176.09 487.853C177.135 487.592 178.023 487.174 178.752 486.598C179.49 486.021 179.985 485.474 180.235 484.959L181.441 484.658C181.564 485.267 181.713 485.978 181.887 486.791C182.062 487.604 182.23 488.33 182.392 488.968L184.474 497.204C184.556 497.528 184.703 497.802 184.913 498.025C185.132 498.236 185.396 498.367 185.707 498.418C185.985 498.457 186.42 498.447 187.012 498.388C187.604 498.329 188.041 498.269 188.325 498.208L188.574 499.194Z" fill="#98978D"/>
<path d="M181.568 522.184C181.81 523.141 181.873 524.093 181.756 525.041C181.639 525.989 181.343 526.853 180.868 527.634C180.367 528.448 179.714 529.149 178.91 529.737C178.103 530.319 177.08 530.764 175.842 531.073C174.97 531.29 174.104 531.378 173.243 531.337C172.381 531.289 171.567 531.112 170.803 530.803L169.391 533.233L168.515 532.782L169.937 530.389C169.168 529.951 168.503 529.369 167.942 528.643C167.387 527.915 166.99 527.076 166.749 526.125C166.478 525.051 166.422 524.031 166.583 523.066C166.748 522.093 167.088 521.211 167.601 520.42C168.112 519.644 168.78 518.978 169.607 518.424C170.439 517.862 171.372 517.453 172.404 517.195C173.307 516.97 174.19 516.881 175.053 516.928C175.921 516.968 176.741 517.147 177.515 517.466L178.915 515.07L179.791 515.521L178.383 517.889C179.136 518.318 179.794 518.899 180.357 519.632C180.918 520.358 181.322 521.209 181.568 522.184ZM176.247 519.534C175.8 518.931 175.28 518.489 174.688 518.21C174.094 517.925 173.407 517.88 172.626 518.075C171.433 518.372 170.66 519.129 170.309 520.346C169.957 521.556 170.027 523.136 170.52 525.086C170.664 525.654 170.805 526.144 170.943 526.556C171.087 526.96 171.272 527.379 171.499 527.815L176.247 519.534ZM178.046 527.747C178.206 527.104 178.261 526.411 178.21 525.669C178.158 524.921 178.018 524.096 177.79 523.195C177.672 522.726 177.531 522.252 177.369 521.774C177.207 521.296 177.025 520.859 176.822 520.464L172.071 528.735C172.541 529.373 173.075 529.817 173.674 530.068C174.272 530.319 174.942 530.352 175.684 530.167C176.323 530.008 176.839 529.715 177.232 529.289C177.632 528.861 177.903 528.347 178.046 527.747ZM200.384 524.569L195.119 525.882C193.872 524.776 192.845 523.903 192.039 523.264C191.239 522.624 190.259 521.897 189.1 521.083L188.568 521.216L189.577 525.207C189.633 525.429 189.722 525.607 189.845 525.74C189.975 525.872 190.175 525.96 190.447 526.004C190.582 526.022 190.786 526.027 191.058 526.019C191.335 526.002 191.569 525.98 191.761 525.952L191.944 526.674L184.617 528.501L184.434 527.779C184.616 527.713 184.855 527.628 185.151 527.521C185.451 527.407 185.66 527.309 185.776 527.227C185.996 527.067 186.13 526.903 186.176 526.734C186.221 526.559 186.214 526.354 186.155 526.119L183.811 516.851C183.755 516.629 183.672 516.452 183.564 516.322C183.455 516.192 183.252 516.105 182.952 516.061C182.726 516.032 182.463 516.025 182.165 516.041C181.874 516.054 181.644 516.069 181.477 516.084L181.294 515.362L188.999 513.441C190.722 513.011 192.094 512.945 193.116 513.241C194.142 513.53 194.787 514.196 195.051 515.239C195.284 516.159 195.194 516.969 194.781 517.669C194.373 518.361 193.644 519.005 192.594 519.602C193.17 520.036 193.839 520.538 194.601 521.109C195.37 521.679 196.164 522.258 196.986 522.848C197.246 523.038 197.592 523.267 198.023 523.534C198.459 523.792 198.82 523.929 199.105 523.943C199.264 523.949 199.46 523.94 199.694 523.914C199.934 523.887 200.103 523.865 200.202 523.847L200.384 524.569ZM191.322 516.444C191.101 515.568 190.681 514.993 190.063 514.721C189.451 514.441 188.67 514.419 187.721 514.655L186.957 514.846L188.347 520.346L189.083 520.162C190.032 519.926 190.707 519.505 191.11 518.899C191.512 518.294 191.583 517.475 191.322 516.444ZM210.135 511.734L209.399 511.917C209.085 511.464 208.635 511.038 208.047 510.64C207.459 510.242 206.928 510.053 206.453 510.073C206.248 510.078 205.971 510.121 205.621 510.202C205.276 510.275 204.99 510.339 204.764 510.396L202.77 510.893L204.054 515.967L205.467 515.614C205.822 515.526 206.134 515.405 206.404 515.253C206.674 515.1 206.9 514.88 207.081 514.592C207.193 514.413 207.279 514.126 207.337 513.731C207.401 513.334 207.422 512.997 207.4 512.721L208.136 512.537L209.522 518.019L208.786 518.202C208.682 517.953 208.5 517.653 208.24 517.305C207.986 516.948 207.768 516.714 207.589 516.601C207.32 516.432 207.03 516.343 206.719 516.336C206.407 516.322 206.061 516.362 205.68 516.457L204.267 516.809L205.224 520.596C205.324 520.991 205.433 521.299 205.55 521.519C205.673 521.731 205.833 521.878 206.032 521.96C206.223 522.037 206.462 522.059 206.749 522.027C207.042 521.993 207.431 521.916 207.915 521.796C208.141 521.739 208.411 521.669 208.726 521.584C209.04 521.499 209.313 521.411 209.544 521.32C209.807 521.222 210.047 521.113 210.264 520.993C210.487 520.872 210.642 520.738 210.728 520.592C210.962 520.212 211.194 519.666 211.425 518.952C211.654 518.232 211.791 517.702 211.836 517.363L212.543 517.187L213.316 521.344L200.433 524.557L200.25 523.835C200.428 523.777 200.667 523.692 200.967 523.577C201.267 523.463 201.476 523.365 201.592 523.283C201.813 523.124 201.946 522.959 201.992 522.79C202.037 522.615 202.03 522.41 201.971 522.175L199.627 512.907C199.571 512.685 199.489 512.512 199.382 512.387C199.274 512.257 199.069 512.167 198.769 512.117C198.582 512.085 198.329 512.076 198.01 512.09C197.692 512.104 197.452 512.121 197.293 512.141L197.11 511.418L209.287 508.382L210.135 511.734Z" fill="#98978D"/>
<path d="M147.559 510.343C157.455 508.988 161.729 501.875 155.756 495.621C154.491 501.506 151.641 506.248 147.559 510.343Z" stroke="#98978D" stroke-linejoin="round"/>
<path d="M218.982 492.533C209.615 495.981 202.465 491.717 204.754 483.403C208.669 487.996 213.436 490.839 218.982 492.533Z" stroke="#98978D" stroke-linejoin="round"/>
<path d="M205.342 541.143C197.917 535.012 189.54 536.796 188.42 545.296C193.893 542.203 199.478 541.014 205.342 541.143Z" stroke="#98978D" stroke-linejoin="round"/>
</svg>
