<svg width="158" height="106" viewBox="0 0 158 106" fill="none" xmlns="http://www.w3.org/2000/svg">
<g clip-path="url(#clip0_858_388)">
<path d="M23.4053 79.4814C46.3028 69.511 62.6231 56.2986 78.9548 45.054C95.2865 33.8093 111.633 25.1884 134.564 21.1212" stroke="black" stroke-width="2" stroke-linecap="round"/>
<path d="M58.0512 59.6044C54.0599 49.7882 48.1198 43.2629 40.8794 38.7129" stroke="black" stroke-width="2" stroke-linecap="round"/>
<path d="M84.7412 40.3962C82.1874 30.8758 76.5244 23.9159 69.6228 18.8701" stroke="black" stroke-width="2.5" stroke-linecap="round"/>
<path d="M104.811 29.4816C110.009 20.9245 116.537 15.6396 125.7 12.3074" stroke="black" stroke-width="2" stroke-linecap="round"/>
<path d="M40.8793 38.7131C32.9981 36.7905 28.3773 31.5695 27.0317 25.6738C34.2458 25.6324 40.1783 30.8459 40.8793 38.7131Z" stroke="black" stroke-width="2" stroke-linejoin="round"/>
<path d="M69.6228 18.8704C61.7417 16.9478 57.1208 11.7268 55.7753 5.83105C62.9893 5.78967 68.9219 11.0031 69.6228 18.8704Z" stroke="black" stroke-width="2" stroke-linejoin="round"/>
<path d="M125.988 12.2766C135.986 13.896 143.454 9.66126 147.572 2.09225C138.402 -0.370267 130.097 3.03087 125.988 12.2766Z" stroke="black" stroke-width="2" stroke-linejoin="round"/>
<path d="M75.6908 47.6968C71.085 45.0995 67.1237 40.5307 66.4377 35.2871C72.3439 35.9092 76.309 41.1339 75.6908 47.6968Z" stroke="black" stroke-width="2" stroke-linejoin="round"/>
<path d="M97.1217 33.9855C103.12 32.6041 108.406 33.2807 113.685 36.2588C109.444 39.4002 103.097 39.509 97.1217 33.9855Z" stroke="black" stroke-width="2" stroke-linejoin="round"/>
</g>
<defs>
<clipPath id="clip0_858_388">
<rect y="0.90332" width="157.401" height="104.948" transform="rotate(-0.328661 0 0.90332)" fill="white"/>
</clipPath>
</defs>
</svg>
