<svg width="108" height="72" viewBox="0 0 108 72" fill="none" xmlns="http://www.w3.org/2000/svg">
<g clip-path="url(#clip0_858_388)">
<path d="M15.8877 53.9527C31.4307 47.1847 42.5091 38.216 53.5951 30.5831C64.6812 22.9502 75.7774 17.0982 91.3434 14.3374" stroke="black" stroke-width="2" stroke-linecap="round"/>
<path d="M39.4056 40.4606C36.6963 33.7973 32.6641 29.3679 27.7493 26.2793" stroke="black" stroke-width="2" stroke-linecap="round"/>
<path d="M57.523 27.4216C55.7895 20.9591 51.9454 16.2347 47.2605 12.8096" stroke="black" stroke-width="2.5" stroke-linecap="round"/>
<path d="M71.1466 20.0128C74.6748 14.2042 79.1062 10.6168 85.3259 8.35481" stroke="black" stroke-width="2" stroke-linecap="round"/>
<path d="M27.7492 26.2789C22.3994 24.9738 19.2627 21.4298 18.3494 17.4277C23.2463 17.3996 27.2734 20.9386 27.7492 26.2789Z" stroke="black" stroke-width="2" stroke-linejoin="round"/>
<path d="M47.2604 12.8092C41.9106 11.5041 38.7739 7.96007 37.8606 3.95801C42.7576 3.92992 46.7846 7.46886 47.2604 12.8092Z" stroke="black" stroke-width="2" stroke-linejoin="round"/>
<path d="M85.5214 8.3339C92.3083 9.43316 97.3773 6.5586 100.173 1.42071C93.948 -0.250868 88.3107 2.05785 85.5214 8.3339Z" stroke="black" stroke-width="2" stroke-linejoin="round"/>
<path d="M51.3794 32.3769C48.253 30.6139 45.564 27.5125 45.0984 23.9531C49.1076 24.3754 51.7991 27.922 51.3794 32.3769Z" stroke="black" stroke-width="2" stroke-linejoin="round"/>
<path d="M65.9269 23.0693C69.9983 22.1316 73.5866 22.5908 77.1699 24.6124C74.2912 26.7448 69.9833 26.8187 65.9269 23.0693Z" stroke="black" stroke-width="2" stroke-linejoin="round"/>
</g>
<defs>
<clipPath id="clip0_858_388">
<rect y="0.613281" width="106.845" height="71.2397" transform="rotate(-0.328661 0 0.613281)" fill="white"/>
</clipPath>
</defs>
</svg>
