<svg width="408" height="402" viewBox="0 0 408 402" fill="none" xmlns="http://www.w3.org/2000/svg">
<path d="M204.019 266.822C241.276 266.006 271.301 235.804 271.08 199.364C270.859 162.925 240.476 134.046 203.219 134.863C165.961 135.679 135.937 165.881 136.158 202.321C136.379 238.76 166.761 267.639 204.019 266.822Z" stroke="#312F1C" stroke-opacity="0.7" stroke-width="4"/>
<path opacity="0.7" d="M203.989 261.961C238.502 261.204 266.313 233.228 266.109 199.473C265.904 165.718 237.76 138.968 203.248 139.724C168.736 140.48 140.924 168.457 141.128 202.212C141.333 235.966 169.477 262.717 203.989 261.961Z" stroke="#312F1C" stroke-opacity="0.7" stroke-width="1.5"/>
<path d="M213.004 186.159L196.374 186.524L196.364 184.809C196.857 184.766 197.621 184.685 198.657 184.566C199.709 184.43 200.432 184.302 200.826 184.18C201.335 184.008 201.72 183.742 201.981 183.382C202.259 183.006 202.395 182.456 202.391 181.731L202.288 164.782L196.144 164.917L196.132 162.888L197.489 162.859C199.266 162.82 200.851 162.463 202.245 161.789C203.656 161.114 204.664 160.399 205.268 159.646L207.316 159.601C207.273 160.648 207.231 161.873 207.19 163.274C207.149 164.675 207.132 165.931 207.139 167.042L207.225 181.36C207.229 181.923 207.355 182.427 207.605 182.873C207.871 183.301 208.243 183.615 208.721 183.814C209.15 183.982 209.85 184.127 210.821 184.251C211.793 184.375 212.517 184.439 212.994 184.445L213.004 186.159Z" fill="#312F1C" fill-opacity="0.7"/>
<path d="M195.7 205.56C195.706 206.557 195.541 207.511 195.204 208.42C194.868 209.329 194.379 210.115 193.738 210.78C193.064 211.471 192.272 212.016 191.359 212.416C190.447 212.809 189.359 213.02 188.096 213.048C187.207 213.067 186.355 212.96 185.537 212.727C184.72 212.487 183.981 212.13 183.32 211.655L181.388 213.736L180.653 213.095L182.585 211.053C181.95 210.449 181.449 209.726 181.082 208.884C180.721 208.042 180.538 207.125 180.532 206.133C180.525 205.013 180.713 203.995 181.096 203.078C181.485 202.156 182.02 201.361 182.7 200.696C183.374 200.044 184.174 199.537 185.1 199.175C186.032 198.807 187.024 198.612 188.077 198.589C188.998 198.568 189.868 198.678 190.685 198.918C191.509 199.151 192.255 199.511 192.923 199.999L194.835 197.948L195.569 198.589L193.657 200.611C194.279 201.202 194.773 201.922 195.141 202.771C195.508 203.613 195.694 204.542 195.7 205.56ZM191.216 201.756C190.928 201.06 190.534 200.508 190.031 200.101C189.528 199.687 188.879 199.489 188.083 199.506C186.865 199.533 185.944 200.107 185.319 201.228C184.694 202.343 184.388 203.917 184.4 205.952C184.404 206.544 184.424 207.059 184.459 207.496C184.501 207.927 184.58 208.382 184.694 208.863L191.216 201.756ZM191.001 210.26C191.306 209.661 191.523 208.99 191.65 208.247C191.777 207.497 191.838 206.652 191.832 205.712C191.829 205.223 191.806 204.724 191.764 204.216C191.721 203.708 191.649 203.237 191.548 202.801L185.026 209.898C185.327 210.632 185.735 211.19 186.251 211.572C186.766 211.953 187.403 212.136 188.159 212.119C188.811 212.105 189.375 211.931 189.854 211.599C190.339 211.266 190.721 210.82 191.001 210.26ZM213.212 212.121L207.843 212.238C206.907 210.868 206.127 209.777 205.503 208.967C204.886 208.156 204.117 207.22 203.196 206.158L202.653 206.17L202.679 210.333C202.68 210.564 202.724 210.76 202.81 210.919C202.904 211.078 203.075 211.209 203.326 211.313C203.451 211.362 203.646 211.413 203.909 211.465C204.18 211.51 204.41 211.541 204.601 211.556L204.606 212.309L197.134 212.473L197.13 211.72C197.32 211.696 197.57 211.665 197.879 211.626C198.195 211.58 198.418 211.53 198.55 211.476C198.799 211.368 198.966 211.235 199.051 211.079C199.135 210.916 199.177 210.712 199.175 210.467L199.117 200.8C199.115 200.568 199.078 200.376 199.004 200.223C198.931 200.07 198.756 199.939 198.479 199.829C198.268 199.75 198.017 199.684 197.727 199.633C197.444 199.581 197.22 199.544 197.056 199.522L197.051 198.769L204.907 198.596C206.664 198.558 207.998 198.799 208.909 199.32C209.827 199.835 210.29 200.636 210.296 201.724C210.302 202.683 210.024 203.462 209.461 204.06C208.906 204.652 208.053 205.125 206.904 205.478C207.354 206.035 207.878 206.68 208.475 207.414C209.078 208.148 209.705 208.897 210.354 209.662C210.56 209.909 210.838 210.212 211.189 210.571C211.546 210.924 211.86 211.139 212.13 211.217C212.282 211.259 212.473 211.293 212.704 211.32C212.941 211.347 213.109 211.363 213.207 211.367L213.212 212.121ZM206.429 202.079C206.423 201.165 206.156 200.504 205.627 200.097C205.105 199.684 204.36 199.487 203.393 199.509L202.613 199.526L202.648 205.262L203.398 205.246C204.365 205.225 205.114 204.96 205.644 204.453C206.174 203.946 206.435 203.154 206.429 202.079ZM225.615 201.639L224.865 201.656C224.671 201.138 224.339 200.618 223.869 200.093C223.398 199.569 222.933 199.264 222.471 199.178C222.274 199.137 221.997 199.117 221.642 199.118C221.293 199.113 221.004 199.113 220.773 199.118L218.74 199.163L218.772 204.455L220.213 204.424C220.575 204.416 220.904 204.367 221.199 204.276C221.495 204.186 221.764 204.019 222.006 203.776C222.156 203.624 222.306 203.36 222.455 202.984C222.611 202.607 222.711 202.279 222.755 202.001L223.505 201.985L223.54 207.702L222.79 207.719C222.749 207.449 222.645 207.113 222.478 206.711C222.317 206.303 222.164 206.023 222.018 205.871C221.8 205.644 221.542 205.492 221.246 205.415C220.949 205.331 220.607 205.294 220.218 205.302L218.778 205.334L218.801 209.284C218.804 209.696 218.836 210.024 218.896 210.267C218.964 210.504 219.083 210.685 219.255 210.81C219.42 210.929 219.644 211.004 219.928 211.037C220.217 211.069 220.609 211.08 221.102 211.069C221.333 211.064 221.609 211.054 221.931 211.041C222.254 211.027 222.537 211.002 222.78 210.964C223.056 210.926 223.312 210.872 223.549 210.803C223.792 210.733 223.972 210.636 224.09 210.511C224.404 210.188 224.756 209.701 225.147 209.048C225.538 208.389 225.795 207.898 225.918 207.573L226.638 207.557L226.398 211.832L213.261 212.12L213.257 211.366C213.441 211.349 213.691 211.318 214.006 211.273C214.322 211.227 214.545 211.177 214.677 211.123C214.926 211.014 215.093 210.882 215.178 210.725C215.262 210.562 215.304 210.359 215.302 210.114L215.244 200.447C215.242 200.215 215.205 200.026 215.132 199.879C215.058 199.726 214.883 199.592 214.606 199.475C214.434 199.402 214.194 199.336 213.884 199.279C213.575 199.221 213.341 199.184 213.183 199.169L213.178 198.415L225.594 198.143L225.615 201.639Z" fill="#312F1C" fill-opacity="0.7"/>
<path d="M162.68 190.278C173.73 191.28 180.238 184.37 175.45 175.811C172.517 182.108 168.179 186.714 162.68 190.278Z" stroke="#312F1C" stroke-opacity="0.7" stroke-width="3" stroke-linejoin="round"/>
<path d="M244.566 188.483C233.531 189.97 226.941 183.347 231.624 174.58C234.632 180.746 239.025 185.161 244.566 188.483Z" stroke="#312F1C" stroke-opacity="0.7" stroke-width="3" stroke-linejoin="round"/>
<path d="M213.331 234.389C206.941 225.597 197.418 225.463 193.949 234.739C200.683 232.658 207.032 232.747 213.331 234.389Z" stroke="#312F1C" stroke-opacity="0.7" stroke-width="3" stroke-linejoin="round"/>
</svg>
