<svg width="148" height="88" viewBox="0 0 148 88" fill="none" xmlns="http://www.w3.org/2000/svg">
<path d="M33.4736 24.3911H67.578C71.7017 24.7503 74.9366 26.0374 76.0386 26.636C78.0222 27.7136 80.1711 30.3775 80.9977 31.5748C81.9895 32.6523 82.2374 35.3163 82.2374 36.5136C84.5516 34.7176 90.6402 27.3843 93.3952 23.9421C95.3788 22.8646 109.374 23.4932 116.124 23.9421L117.364 25.7381L103.727 40.5544L117.777 59.4115L116.537 60.7585C115.876 60.7585 101.109 60.7585 93.8085 60.7585L82.2374 44.5952C82.2374 46.7503 79.2069 51.7789 77.6916 54.0238C77.0304 56.8973 68.6001 59.7109 64.4676 60.7585C55.8719 60.7585 39.3969 60.7585 32.2339 60.7585L33.0604 24.3911M41.3254 47.7381L45.458 36.5136C51.4088 36.1544 57.58 36.3639 59.9218 36.5136C63.5584 36.5136 64.1921 39.2075 64.0543 40.5544C64.0543 43.4279 62.1258 45.9422 61.1615 46.8401C60.5003 47.9177 55.927 47.8877 53.723 47.7381H41.3254Z" stroke="#312F1C" stroke-opacity="0.7" stroke-width="3"/>
<path d="M73.5596 7.28564C91.9085 7.2857 108.471 11.4276 120.411 18.0737C132.385 24.7387 139.506 33.7878 139.506 43.5513C139.506 53.3146 132.385 62.3629 120.411 69.0278C108.471 75.674 91.9086 79.8159 73.5596 79.8159C55.2103 79.8159 38.6471 75.6741 26.707 69.0278C14.7336 62.3629 7.61246 53.3146 7.6123 43.5513C7.6123 33.7878 14.7335 24.7387 26.707 18.0737C38.6471 11.4275 55.2104 7.28564 73.5596 7.28564Z" stroke="#312F1C" stroke-opacity="0.7" stroke-width="2"/>
<path d="M73.9727 2.5C94.0278 2.50008 112.063 7.34084 125 15.0361C137.991 22.7632 145.444 33.0837 145.444 44C145.444 54.9163 137.991 65.2368 125 72.9639C112.063 80.6592 94.0278 85.4999 73.9727 85.5C53.9173 85.5 35.8817 80.6592 22.9443 72.9639C9.95373 65.2368 2.5 54.9163 2.5 44C2.5 33.0837 9.95373 22.7632 22.9443 15.0361C35.8817 7.34078 53.9173 2.5 73.9727 2.5Z" stroke="#312F1C" stroke-opacity="0.7" stroke-width="5"/>
</svg>
