<svg width="289" height="284" viewBox="0 0 289 284" fill="none" xmlns="http://www.w3.org/2000/svg">
<path d="M141.001 190.441C168.42 191.859 192.116 171.295 193.928 144.509C195.739 117.723 174.98 94.8585 147.561 93.4402C120.142 92.0219 96.4453 112.586 94.6338 139.372C92.8223 166.158 113.581 189.023 141.001 190.441Z" stroke="black" stroke-width="2"/>
<path opacity="0.7" d="M141.242 186.867C166.641 188.181 188.591 169.132 190.27 144.319C191.948 119.507 172.718 98.3275 147.319 97.0137C121.92 95.6998 99.97 114.749 98.292 139.561C96.6139 164.374 115.843 185.553 141.242 186.867Z" stroke="black" stroke-width="1.5"/>
<path d="M150.916 127.692L140.949 127.176L141.018 126.15C141.315 126.146 141.776 126.131 142.401 126.106C143.037 126.071 143.475 126.026 143.717 125.971C144.029 125.89 144.271 125.748 144.443 125.544C144.625 125.331 144.731 125.008 144.761 124.574L145.447 114.428L141.765 114.237L141.847 113.023L142.66 113.065C143.725 113.12 144.689 112.977 145.553 112.635C146.427 112.293 147.062 111.91 147.456 111.486L148.684 111.549C148.612 112.174 148.533 112.905 148.447 113.742C148.36 114.578 148.295 115.329 148.25 115.994L147.67 124.565C147.647 124.903 147.701 125.21 147.83 125.487C147.97 125.756 148.179 125.96 148.457 126.1C148.706 126.219 149.118 126.337 149.694 126.454C150.27 126.571 150.7 126.641 150.986 126.666L150.916 127.692Z" fill="black"/>
<path d="M138.844 146.405C138.793 147.152 138.617 147.856 138.315 148.517C138.013 149.178 137.604 149.74 137.088 150.201C136.546 150.681 135.923 151.045 135.219 151.294C134.515 151.538 133.689 151.636 132.743 151.587C132.077 151.552 131.445 151.425 130.847 151.206C130.249 150.981 129.715 150.673 129.247 150.282L127.687 151.731L127.174 151.212L128.731 149.791C128.289 149.304 127.954 148.735 127.726 148.085C127.503 147.436 127.417 146.74 127.467 145.998C127.523 145.16 127.72 144.408 128.057 143.744C128.399 143.075 128.843 142.511 129.388 142.051C129.928 141.6 130.555 141.265 131.267 141.045C131.984 140.822 132.738 140.73 133.526 140.771C134.216 140.806 134.861 140.936 135.459 141.161C136.062 141.381 136.6 141.691 137.073 142.093L138.616 140.664L139.13 141.184L137.588 142.591C138.021 143.068 138.351 143.633 138.579 144.288C138.807 144.938 138.895 145.644 138.844 146.405ZM135.699 143.313C135.523 142.776 135.258 142.342 134.904 142.01C134.551 141.672 134.076 141.488 133.48 141.457C132.568 141.41 131.847 141.789 131.318 142.593C130.789 143.392 130.473 144.553 130.37 146.076C130.34 146.519 130.326 146.905 130.329 147.234C130.337 147.558 130.37 147.903 130.43 148.269L135.699 143.313ZM135.069 149.662C135.331 149.231 135.53 148.741 135.666 148.192C135.802 147.638 135.894 147.009 135.942 146.306C135.967 145.94 135.977 145.565 135.973 145.183C135.969 144.801 135.942 144.444 135.89 144.113L130.621 149.062C130.805 149.627 131.08 150.067 131.444 150.381C131.809 150.695 132.275 150.866 132.842 150.896C133.33 150.921 133.762 150.822 134.138 150.6C134.519 150.378 134.829 150.065 135.069 149.662ZM151.58 152.278L147.558 152.07C146.933 150.994 146.41 150.135 145.988 149.494C145.571 148.854 145.048 148.111 144.417 147.266L144.011 147.245L143.8 150.36C143.788 150.534 143.81 150.682 143.866 150.806C143.927 150.93 144.049 151.038 144.23 151.129C144.321 151.173 144.464 151.221 144.658 151.275C144.858 151.324 145.029 151.359 145.171 151.381L145.132 151.945L139.535 151.655L139.573 151.092C139.717 151.084 139.906 151.075 140.139 151.063C140.378 151.046 140.547 151.021 140.649 150.988C140.841 150.92 140.973 150.83 141.045 150.718C141.118 150.601 141.16 150.451 141.172 150.268L141.661 143.034C141.673 142.86 141.656 142.714 141.609 142.596C141.563 142.477 141.439 142.369 141.238 142.272C141.085 142.201 140.901 142.138 140.687 142.084C140.478 142.03 140.312 141.99 140.19 141.964L140.229 141.4L146.114 141.705C147.43 141.773 148.415 142.027 149.068 142.467C149.726 142.902 150.028 143.527 149.973 144.341C149.924 145.059 149.673 145.626 149.219 146.043C148.771 146.455 148.107 146.761 147.228 146.962C147.534 147.403 147.891 147.915 148.297 148.497C148.707 149.079 149.135 149.674 149.578 150.282C149.718 150.478 149.91 150.72 150.152 151.008C150.4 151.291 150.623 151.47 150.821 151.543C150.932 151.582 151.073 151.619 151.244 151.652C151.42 151.685 151.545 151.706 151.618 151.715L151.58 152.278ZM147.06 144.393C147.107 143.709 146.943 143.2 146.57 142.867C146.202 142.529 145.656 142.341 144.931 142.303L144.347 142.273L144.057 146.566L144.619 146.595C145.343 146.633 145.918 146.476 146.342 146.126C146.767 145.775 147.006 145.198 147.06 144.393ZM161.436 145.123L160.874 145.093C160.757 144.696 160.537 144.288 160.214 143.87C159.891 143.452 159.56 143.198 159.22 143.108C159.074 143.066 158.868 143.036 158.603 143.018C158.342 142.995 158.125 142.979 157.953 142.97L156.43 142.891L156.162 146.851L157.241 146.907C157.512 146.921 157.761 146.903 157.987 146.851C158.213 146.8 158.423 146.69 158.618 146.521C158.739 146.417 158.865 146.227 158.998 145.954C159.135 145.68 159.228 145.441 159.276 145.236L159.838 145.265L159.549 149.543L158.987 149.514C158.971 149.31 158.912 149.053 158.809 148.743C158.711 148.429 158.612 148.211 158.512 148.09C158.361 147.908 158.177 147.78 157.959 147.706C157.742 147.627 157.488 147.58 157.197 147.565L156.117 147.509L155.917 150.465C155.897 150.773 155.902 151.02 155.934 151.205C155.971 151.386 156.051 151.528 156.172 151.631C156.289 151.729 156.453 151.798 156.663 151.838C156.878 151.878 157.17 151.907 157.54 151.927C157.713 151.936 157.92 151.944 158.162 151.952C158.403 151.959 158.616 151.956 158.8 151.941C159.009 151.928 159.204 151.901 159.384 151.862C159.57 151.824 159.71 151.761 159.805 151.674C160.058 151.45 160.348 151.105 160.677 150.638C161.005 150.167 161.225 149.813 161.335 149.577L161.874 149.605L161.459 152.789L151.617 152.28L151.655 151.716C151.794 151.714 151.983 151.704 152.221 151.688C152.46 151.671 152.63 151.646 152.731 151.613C152.923 151.545 153.056 151.455 153.127 151.343C153.2 151.226 153.242 151.076 153.254 150.893L153.744 143.659C153.755 143.485 153.738 143.342 153.691 143.228C153.645 143.11 153.521 142.999 153.32 142.897C153.196 142.833 153.02 142.77 152.791 142.71C152.563 142.65 152.39 142.61 152.273 142.589L152.311 142.025L161.613 142.506L161.436 145.123Z" fill="black"/>
<path d="M114.774 131.96C122.838 133.295 127.994 128.571 124.94 122.022C122.444 126.49 119.007 129.64 114.774 131.96Z" stroke="black" stroke-linejoin="round"/>
<path d="M175.036 135.077C166.848 135.571 162.364 130.348 166.28 124.161C168.156 128.854 171.145 132.336 175.036 135.077Z" stroke="black" stroke-linejoin="round"/>
<path d="M151.937 171.195C147.718 164.389 140.729 163.775 137.677 170.402C142.738 169.237 147.398 169.647 151.937 171.195Z" stroke="black" stroke-linejoin="round"/>
</svg>
