<svg width="80" height="80" viewBox="0 0 80 80" fill="none" xmlns="http://www.w3.org/2000/svg">
<path d="M40 77.5C60.7107 77.5 77.5 60.7107 77.5 40C77.5 19.2893 60.7107 2.5 40 2.5C19.2893 2.5 2.5 19.2893 2.5 40C2.5 60.7107 19.2893 77.5 40 77.5Z" fill="#312F1C"/>
<path d="M30 42.5C32.7614 42.5 35 40.2614 35 37.5C35 34.7386 32.7614 32.5 30 32.5C27.2386 32.5 25 34.7386 25 37.5C25 40.2614 27.2386 42.5 30 42.5Z" fill="white"/>
<path d="M50 42.5C52.7614 42.5 55 40.2614 55 37.5C55 34.7386 52.7614 32.5 50 32.5C47.2386 32.5 45 34.7386 45 37.5C45 40.2614 47.2386 42.5 50 42.5Z" fill="white"/>
<path d="M40 35C42.7614 35 45 32.7614 45 30C45 27.2386 42.7614 25 40 25C37.2386 25 35 27.2386 35 30C35 32.7614 37.2386 35 40 35Z" fill="white"/>
<path d="M25 52.5C25 47.5 35 47.5 35 52.5H25Z" fill="black"/>
<path d="M25 52.5C25 47.5 35 47.5 35 52.5" stroke="white" stroke-width="2.5"/>
<path d="M45 52.5C45 47.5 55 47.5 55 52.5H45Z" fill="black"/>
<path d="M45 52.5C45 47.5 55 47.5 55 52.5" stroke="white" stroke-width="2.5"/>
<path d="M32.5 47.5C32.5 42.5 47.5 42.5 47.5 47.5H32.5Z" fill="black"/>
<path d="M32.5 47.5C32.5 42.5 47.5 42.5 47.5 47.5" stroke="white" stroke-width="2.5"/>
</svg>
