<svg width="99" height="126" viewBox="0 0 99 126" fill="none" xmlns="http://www.w3.org/2000/svg">
<path d="M92.3518 124.308C54.9244 128.541 53.6232 61.5301 55.774 54.7572M11.7137 123.345C45.9385 127.519 47.1287 61.4351 45.1619 54.7559M45.6117 58.1613C28.3939 73.0573 3.13581 55.1069 20.2576 44.7133M20.2568 44.7133C-5.85413 43.7761 -3.01943 17.6319 18.3783 21.3141M45.6099 58.159C28.3922 73.055 3.13399 55.1047 20.2558 44.711M18.3783 21.3134C7.29747 3.51476 39.0702 -6.43411 44.7566 9.47088C58.2944 -7.60921 90.8654 5.98828 75.5832 21.3118C101.089 16.9752 105.216 43.9672 83.295 44.711C97.0208 62.3594 57.0097 72.2994 55.5566 55.7175" stroke="#312F1C" stroke-opacity="0.7" stroke-width="3"/>
</svg>
